<svg id="Layer_1" data-name="Layer 1" xmlns="http://www.w3.org/2000/svg" xmlns:xlink="http://www.w3.org/1999/xlink" viewBox="0 0 719 925"><defs><style>.cls-1{fill:#10193a;}.cls-2{fill:url(#linear-gradient);}.cls-3{fill:url(#linear-gradient-2);}.cls-4{fill:url(#linear-gradient-3);}.cls-5{fill:url(#linear-gradient-4);}.cls-6{fill:url(#linear-gradient-5);}.cls-7{fill:url(#linear-gradient-6);}.cls-8{fill:url(#linear-gradient-7);}.cls-9{fill:url(#linear-gradient-8);}.cls-10{fill:url(#linear-gradient-9);}.cls-11{fill:url(#linear-gradient-10);}.cls-12{fill:url(#linear-gradient-11);}.cls-13{fill:url(#linear-gradient-12);}.cls-14{fill:#fff;}</style><linearGradient id="linear-gradient" x1="347.75" y1="123.01" x2="347.75" y2="523.46" gradientUnits="userSpaceOnUse"><stop offset="0" stop-color="#f10093"/><stop offset="1" stop-color="#a063d7"/></linearGradient><linearGradient id="linear-gradient-2" x1="253.3" y1="123.01" x2="253.3" y2="523.46" xlink:href="#linear-gradient"/><linearGradient id="linear-gradient-3" x1="442.93" y1="123.01" x2="442.93" y2="523.46" xlink:href="#linear-gradient"/><linearGradient id="linear-gradient-4" x1="348.12" y1="123.01" x2="348.12" y2="523.46" xlink:href="#linear-gradient"/><linearGradient id="linear-gradient-5" x1="329" y1="455.48" x2="221.44" y2="70.45" gradientUnits="userSpaceOnUse"><stop offset="0" stop-color="#f1e50d"/><stop offset="1" stop-color="#f143b9"/></linearGradient><linearGradient id="linear-gradient-6" x1="380.48" y1="441.1" x2="272.92" y2="56.07" xlink:href="#linear-gradient-5"/><linearGradient id="linear-gradient-7" x1="479.9" y1="413.33" x2="372.34" y2="28.3" xlink:href="#linear-gradient-5"/><linearGradient id="linear-gradient-8" x1="355.28" y1="65.05" x2="349.05" y2="395.52" gradientUnits="userSpaceOnUse"><stop offset="0" stop-color="#f1e50d"/><stop offset="1" stop-color="#f153c9"/></linearGradient><linearGradient id="linear-gradient-9" x1="409.49" y1="66.07" x2="403.26" y2="396.54" xlink:href="#linear-gradient-8"/><linearGradient id="linear-gradient-10" x1="295.95" y1="63.93" x2="289.71" y2="394.4" xlink:href="#linear-gradient-8"/><linearGradient id="linear-gradient-11" x1="455.97" y1="66.95" x2="449.74" y2="397.42" xlink:href="#linear-gradient-8"/><linearGradient id="linear-gradient-12" x1="245.9" y1="62.98" x2="239.66" y2="393.45" xlink:href="#linear-gradient-8"/></defs><title>SundvoldenLogo_NegativeText</title><circle class="cls-1" cx="348.16" cy="309.1" r="296.36"/><path class="cls-2" d="M517.85,141.24H271.38c-50.24,0-92.51,39.56-93.7,89.79a92.11,92.11,0,0,0,92,94.22h9.94L269.09,293a59.69,59.69,0,0,1-35-107.64l-10.34-31.77a91.13,91.13,0,0,1,30.39-10.94l10.14,31.18c1.78-.16,3.57-.26,5.39-.26H432l10.47-32.17h33.94L466,173.52h6.92A47.43,47.43,0,0,0,517.85,141.24Z"/><path class="cls-3" d="M318.46,444.69H220.74a45.46,45.46,0,0,0-43.09,30.95h0V477H329Z"/><path class="cls-4" d="M426.58,325.25a59.72,59.72,0,1,1,0,119.44h-48.8L367.28,477h59.3a92,92,0,0,0,.55-184l-10.5,32.27Z"/><polygon class="cls-5" points="313.55 325.25 382.69 325.25 393.19 292.96 303.05 292.96 313.55 325.25"/><path class="cls-6" d="M234.08,185.31l35,107.64h34L264.27,173.78A59.41,59.41,0,0,0,234.08,185.31Z"/><path class="cls-7" d="M416.63,325.25H382.69L349.14,428.36a1.08,1.08,0,0,1-2.05,0L313.55,325.25H279.6l38.86,119.44h59.32Z"/><path class="cls-8" d="M432,173.52,393.19,293h33.39l.55,0L466,173.52Z"/><polygon class="cls-9" points="318.46 444.69 328.96 476.97 367.28 476.97 377.78 444.69 318.46 444.69"/><path class="cls-10" d="M393.19,293l-10.5,32.29h33.94L427.13,293l-.55,0Z"/><path class="cls-11" d="M303.05,293h-34l10.51,32.3h33.95Z"/><polygon class="cls-12" points="442.55 141.24 432.04 173.52 465.99 173.52 476.49 141.24 442.55 141.24"/><path class="cls-13" d="M254.12,142.55a91.13,91.13,0,0,0-30.38,11l10.33,31.74a59.41,59.41,0,0,1,30.19-11.53Z"/><path class="cls-14" d="M122.14,883.19a6.71,6.71,0,0,0-1.36-1,24.24,24.24,0,0,0-2.91-1.48,27.79,27.79,0,0,0-3.81-1.36,15.14,15.14,0,0,0-4.13-.58q-5.69,0-5.69,3.81a3,3,0,0,0,.62,1.94,5.33,5.33,0,0,0,1.8,1.39,16.36,16.36,0,0,0,3,1.13c1.2.34,2.6.73,4.2,1.16a56.62,56.62,0,0,1,5.94,2,15.91,15.91,0,0,1,4.49,2.65,10.65,10.65,0,0,1,2.84,3.85,13.28,13.28,0,0,1,1,5.42,13.56,13.56,0,0,1-1.46,6.56,12.28,12.28,0,0,1-3.84,4.33,16,16,0,0,1-5.49,2.39,27.14,27.14,0,0,1-6.4.75,35.53,35.53,0,0,1-5.17-.39,38.32,38.32,0,0,1-5.17-1.13,42.31,42.31,0,0,1-4.88-1.78,28,28,0,0,1-4.36-2.39L96,901.22a10.41,10.41,0,0,0,1.68,1.23,26.59,26.59,0,0,0,3.53,1.81,35.44,35.44,0,0,0,4.68,1.61,19.39,19.39,0,0,0,5.23.71q5.63,0,5.62-3.42a2.89,2.89,0,0,0-.84-2.14,7.89,7.89,0,0,0-2.32-1.51,24.82,24.82,0,0,0-3.52-1.26L105.66,897a37.9,37.9,0,0,1-5.49-2.11,14.37,14.37,0,0,1-3.84-2.61,9.44,9.44,0,0,1-2.27-3.43,12.71,12.71,0,0,1-.74-4.52,14.37,14.37,0,0,1,1.36-6.4,13.75,13.75,0,0,1,3.68-4.68,16.1,16.1,0,0,1,5.4-2.88,21.59,21.59,0,0,1,6.49-1,24.91,24.91,0,0,1,4.72.45,36.38,36.38,0,0,1,4.46,1.16,31.91,31.91,0,0,1,4,1.62c1.23.6,2.36,1.2,3.39,1.81Z"/><path class="cls-14" d="M163.28,906.58a8.64,8.64,0,0,0,4.58-1.13,9,9,0,0,0,3-3,12.68,12.68,0,0,0,1.65-4.3,25.38,25.38,0,0,0,.48-4.94V869.75h10.6v23.46a31.83,31.83,0,0,1-1.2,8.91,20.4,20.4,0,0,1-3.68,7.24,17.31,17.31,0,0,1-6.33,4.88,21.69,21.69,0,0,1-9.14,1.78,21.36,21.36,0,0,1-9.37-1.88,17.27,17.27,0,0,1-6.3-5,20.58,20.58,0,0,1-3.56-7.27,32.77,32.77,0,0,1-1.13-8.65V869.75h10.6v23.46a23.53,23.53,0,0,0,.52,5,13.18,13.18,0,0,0,1.68,4.26,8.3,8.3,0,0,0,7.56,4.07Z"/><path class="cls-14" d="M212.1,889.4v26.23H201.5V869.75h8.27l21.39,27v-27h10.59v45.88h-8.52Z"/><path class="cls-14" d="M260.21,915.63V869.75h17.12a25.42,25.42,0,0,1,9.95,1.81,20,20,0,0,1,11.47,12.18,26.78,26.78,0,0,1,1.45,8.89,26.48,26.48,0,0,1-1.61,9.46,20.43,20.43,0,0,1-4.62,7.24,20.87,20.87,0,0,1-7.24,4.65,25.7,25.7,0,0,1-9.4,1.65Zm29.2-23a17.79,17.79,0,0,0-.81-5.53,12.36,12.36,0,0,0-2.36-4.3,10.2,10.2,0,0,0-3.81-2.77,12.78,12.78,0,0,0-5.1-1H270.8v27.27h6.53a12.3,12.3,0,0,0,5.17-1,10.5,10.5,0,0,0,3.78-2.88,13.09,13.09,0,0,0,2.32-4.32A17.57,17.57,0,0,0,289.41,892.63Z"/><path class="cls-14" d="M320.58,869.75l10.8,32.57L342,869.75h11.17l-17.38,45.88h-8.91l-17.58-45.88Z"/><path class="cls-14" d="M384.78,916a21.26,21.26,0,0,1-9.3-2,22.89,22.89,0,0,1-7.17-5.26A24.2,24.2,0,0,1,362,892.63a22.94,22.94,0,0,1,1.71-8.73,23.17,23.17,0,0,1,12.05-12.5,22,22,0,0,1,9.18-1.91,21.26,21.26,0,0,1,9.3,2,22.54,22.54,0,0,1,7.17,5.3,23.89,23.89,0,0,1,4.59,7.49,23.5,23.5,0,0,1,1.61,8.53,22.93,22.93,0,0,1-1.71,8.72,23.25,23.25,0,0,1-12,12.54A21.67,21.67,0,0,1,384.78,916Zm-11.95-23.26a17,17,0,0,0,.78,5.13,13.52,13.52,0,0,0,2.29,4.43,11.33,11.33,0,0,0,3.78,3.1,12.11,12.11,0,0,0,10.47-.06,11.6,11.6,0,0,0,3.74-3.2,13.94,13.94,0,0,0,2.23-4.46,17.49,17.49,0,0,0,.75-5.07,17.08,17.08,0,0,0-.78-5.14,12.94,12.94,0,0,0-2.33-4.39,11.44,11.44,0,0,0-3.78-3,11.2,11.2,0,0,0-5.13-1.13,11.08,11.08,0,0,0-5.27,1.19,11.88,11.88,0,0,0-3.75,3.14,13.31,13.31,0,0,0-2.26,4.42A17.84,17.84,0,0,0,372.83,892.76Z"/><path class="cls-14" d="M423.36,915.63V869.75H434v36.58h22.23v9.3Z"/><path class="cls-14" d="M469.8,915.63V869.75h17.12a25.42,25.42,0,0,1,9.95,1.81,20.71,20.71,0,0,1,7.14,4.91,20.45,20.45,0,0,1,4.33,7.27,26.78,26.78,0,0,1,1.45,8.89,26.48,26.48,0,0,1-1.61,9.46,20.43,20.43,0,0,1-4.62,7.24,20.87,20.87,0,0,1-7.24,4.65,25.66,25.66,0,0,1-9.4,1.65Zm29.2-23a17.79,17.79,0,0,0-.81-5.53,12.34,12.34,0,0,0-2.35-4.3A10.31,10.31,0,0,0,492,880a12.71,12.71,0,0,0-5.1-1H480.4v27.27h6.52a12.3,12.3,0,0,0,5.17-1,10.41,10.41,0,0,0,3.78-2.88,12.91,12.91,0,0,0,2.32-4.32A17.57,17.57,0,0,0,499,892.63Z"/><path class="cls-14" d="M557.94,906.33v9.3H525.7V869.75h31.66v9.31H536.3V888h18.09v8.6H536.3v9.76Z"/><path class="cls-14" d="M585.12,889.4v26.23h-10.6V869.75h8.27l21.39,27v-27h10.59v45.88h-8.52Z"/><path class="cls-14" d="M19.5,683.75h9.19V786.21H19.55c-2.8,0-4.33,1.53-4.33,4.32V801.7c0,2.8,1.53,4.38,4.33,4.38H58c2.8,0,4.34-1.53,4.34-4.33V790.58c0-2.83-1.54-4.37-4.34-4.37H49v-8.28l19.68-20,34.65,42.35c4.56,5.79,4.56,5.79,11.23,5.79h15c2.79,0,4.32-1.53,4.32-4.33V790.58c0-2.8-1.53-4.32-4.32-4.32H117.14L82.67,743.71l31.5-31.94h15.34c2.85,0,4.34-1.4,4.34-4.16V696.22c0-2.79-1.54-4.33-4.34-4.33H113.1c-5.14,0-5.76.63-11.72,6.63-3,3-52.42,52.79-52.42,52.79V668.23c0-2.79-1.53-4.32-4.33-4.32H19.5c-2.8,0-4.33,1.53-4.33,4.32V679.4c0,2.82,1.53,4.35,4.33,4.35"/><path class="cls-14" d="M147.38,806.08h38.23c2.8,0,4.33-1.54,4.33-4.33V790.57c0-2.79-1.53-4.32-4.33-4.32H176.5V740.86c0-18.64,13.11-32.17,31.16-32.17,17.57,0,28.06,11.41,28.06,30.54v47h-9.08c-2.82,0-4.35,1.53-4.35,4.32v11.18c0,2.79,1.53,4.33,4.35,4.33h38.24c2.81,0,4.34-1.54,4.34-4.33V790.57c0-2.79-1.53-4.32-4.34-4.32h-9.1V737.38c0-29.1-18.32-47.9-46.67-47.9-13.06,0-24,4-32.61,12v-5.18c0-2.8-1.53-4.33-4.32-4.33h-24.8c-2.8,0-4.33,1.49-4.33,4.3V707.4c0,2.8,1.53,4.36,4.33,4.36h9.09v74.49h-9.09c-2.8,0-4.33,1.53-4.33,4.32v11.18c0,2.79,1.53,4.33,4.33,4.33"/><path class="cls-14" d="M326.6,709.11c21.16,0,37.76,17.66,37.76,40.2S348.3,788.92,327,788.92c-21.05,0-37.55-17.67-37.55-40.22s16-39.59,37.15-39.59m0,99.24c32.88,0,58.63-26.2,58.63-59.65,0-33.11-25.58-59-58.23-59s-58.41,26.21-58.41,59.65c0,33.09,25.48,59,58,59"/><path class="cls-14" d="M386.13,711.76h9.33l31.13,91.4a5.11,5.11,0,0,0,4.77,3.35h8.46a5.08,5.08,0,0,0,4.8-3.44l26.05-74.9,25.92,74.9a5.08,5.08,0,0,0,4.81,3.44h8.47a5.09,5.09,0,0,0,4.76-3.34l31.15-91.41h9.31c2.82,0,4.36-1.53,4.36-4.32V696.27c0-2.8-1.54-4.33-4.36-4.33H515.81c-2.8,0-4.34,1.53-4.34,4.33v11.17c0,2.79,1.54,4.32,4.34,4.32h8.83l-18.72,60.5-26.49-77.07a5.1,5.1,0,0,0-4.8-3.45h-7.84a5.09,5.09,0,0,0-4.82,3.45l-26.23,77L417,711.76h8.84c2.79,0,4.32-1.53,4.32-4.32V696.27c0-2.8-1.53-4.33-4.32-4.33H386.13c-2.81,0-4.35,1.53-4.35,4.33v11.17c0,2.79,1.54,4.32,4.35,4.32"/><path class="cls-14" d="M564.8,806.08h45.88c2.82,0,4.35-1.54,4.35-4.33V790.57c0-2.79-1.53-4.32-4.35-4.32h-9.09v-90c0-2.8-1.54-4.33-4.34-4.33h-25c-2.81,0-4.34,1.53-4.34,4.33v11.17c0,2.79,1.53,4.32,4.34,4.32h9.11v74.49H564.8c-2.79,0-4.33,1.53-4.33,4.32v11.18c0,2.79,1.54,4.33,4.33,4.33"/><path class="cls-14" d="M622.48,711.77h12.1v62.45c0,20.47,13.4,33.71,34.12,33.71,21.38,0,35.2-12.8,35.2-32.63V752.36c0-2.8-1.53-4.32-4.33-4.32h-11c-2.8,0-4.34,1.52-4.34,4.32v21.15c0,7.28-5.18,14.81-13.86,14.81-10.89,0-15.53-4.53-15.53-15.12V711.77h26.58c2.8,0,4.34-1.54,4.34-4.33V696.27c0-2.8-1.54-4.33-4.34-4.33H654.83V668.19c0-2.79-1.53-4.33-4.33-4.33H638.93c-2.81,0-4.35,1.54-4.35,4.33v23.75h-12.1c-2.8,0-4.33,1.53-4.33,4.33v11.17c0,2.79,1.53,4.33,4.33,4.33"/><path class="cls-14" d="M591.21,677.52a12.69,12.69,0,1,0-12.69-12.69,12.69,12.69,0,0,0,12.69,12.69"/></svg>